# xmcd
#
# Track frame offsets: 
#        150
#        18435
#        33075
#        48542
#        67105
#        86655
#        102538
#        120533
#
# Disc length: 1809 seconds
#
# Revision: 0
# Processed by: cddbd v1.5.2PL0 Copyright (c) Steve Scherf et al.
# Submitted via: ExactAudioCopyFreeDBPlugin 1.0
#
DISCID=67070f08
DTITLE=Mera Zymeri - Zemrat Tona Dojn Dashni
DYEAR=2014
DGENRE=Pop/Funk
TTITLE0=Nusja Si Syret
TTITLE1=Zemrat Tona Dojn Dashni
TTITLE2=Sy Ata Sy
TTITLE3=Le T'ja Nis Sevdaja
TTITLE4=Kam Frajer
TTITLE5=Luj Me Zemer
TTITLE6=Ose Un Ose Ti
TTITLE7=Mos Dergo Te Fala
EXTD=
EXTT0=
EXTT1=
EXTT2=
EXTT3=
EXTT4=
EXTT5=
EXTT6=
EXTT7=
PLAYORDER=
